<svg xmlns="http://www.w3.org/2000/svg" xmlns:xlink="http://www.w3.org/1999/xlink" viewBox="0 0 24 24"><defs><style>.cls-1{fill-rule:evenodd;fill:url(#linear-gradient);}</style><linearGradient id="linear-gradient" x1="-1064.47" y1="48.89" x2="-1063.81" y2="49.8" gradientTransform="translate(25553 -1174) scale(24)" gradientUnits="userSpaceOnUse"><stop offset="0" stop-color="#25c5ff"/><stop offset="0.45" stop-color="#0048ff"/><stop offset="1" stop-color="#c500f3"/></linearGradient></defs><g id="Layer_2" data-name="Layer 2"><g id="Layer_1-2" data-name="Layer 1"><g id="Artboard"><g id="userway_logo" data-name="userway logo"><path id="Combined-Shape" class="cls-1" d="M.9,4.3A1.79,1.79,0,0,1,2.7,6.1h0V7.5h0V12a9.3,9.3,0,0,0,18.6,0h0V7.4h0V6a1.79,1.79,0,0,1,1.8-1.8H24V12A12,12,0,0,1,0,12H0V4.3ZM1.3,0A5.59,5.59,0,0,1,6.9,5.6V12a5.1,5.1,0,0,0,10.2,0V5.6A5.59,5.59,0,0,1,22.7,0H24V2.7H22.7a2.9,2.9,0,0,0-2.9,2.9V12a7.7,7.7,0,0,1-7.7,7.7A7.79,7.79,0,0,1,4.3,12V5.6a2.93,2.93,0,0,0-3-2.9H0V0Z"/></g></g></g></g></svg>